solid 
 facet normal -8.660254e-01 -5.000000e-01 -0.000000e+00
   outer loop
     vertex  4.518000e+02  1.301000e+02 -2.417500e+01
     vertex  4.518000e+02  1.301000e+02 -3.020500e+01
     vertex  4.618500e+02  1.126929e+02 -3.020500e+01
   endloop
 endfacet
 facet normal -8.660254e-01 -5.000000e-01  0.000000e+00
   outer loop
     vertex  4.518000e+02  1.301000e+02 -2.417500e+01
     vertex  4.618500e+02  1.126929e+02 -3.020500e+01
     vertex  4.618500e+02  1.126929e+02 -2.417500e+01
   endloop
 endfacet
 facet normal -8.660254e-01  5.000000e-01  0.000000e+00
   outer loop
     vertex  4.618500e+02  1.475071e+02 -3.020500e+01
     vertex  4.518000e+02  1.301000e+02 -3.020500e+01
     vertex  4.518000e+02  1.301000e+02 -2.417500e+01
   endloop
 endfacet
 facet normal -8.660254e-01  5.000000e-01  0.000000e+00
   outer loop
     vertex  4.618500e+02  1.475071e+02 -2.417500e+01
     vertex  4.618500e+02  1.475071e+02 -3.020500e+01
     vertex  4.518000e+02  1.301000e+02 -2.417500e+01
   endloop
 endfacet
 facet normal -8.164420e-01  4.713730e-01  3.335114e-01
   outer loop
     vertex  4.643625e+02  1.376375e+02 -4.075000e+00
     vertex  4.618500e+02  1.475071e+02 -2.417500e+01
     vertex  4.518000e+02  1.301000e+02 -2.417500e+01
   endloop
 endfacet
 facet normal -8.479983e-01  0.000000e+00  5.299989e-01
   outer loop
     vertex  4.643625e+02  1.225625e+02 -4.075000e+00
     vertex  4.643625e+02  1.376375e+02 -4.075000e+00
     vertex  4.518000e+02  1.301000e+02 -2.417500e+01
   endloop
 endfacet
 facet normal -8.164420e-01 -4.713730e-01  3.335114e-01
   outer loop
     vertex  4.643625e+02  1.225625e+02 -4.075000e+00
     vertex  4.518000e+02  1.301000e+02 -2.417500e+01
     vertex  4.618500e+02  1.126929e+02 -2.417500e+01
   endloop
 endfacet
 facet normal -2.525885e-16 -8.976263e-01  4.407573e-01
   outer loop
     vertex  4.643625e+02  1.225625e+02 -4.075000e+00
     vertex  4.618500e+02  1.126929e+02 -2.417500e+01
     vertex  4.819500e+02  1.126929e+02 -2.417500e+01
   endloop
 endfacet
 facet normal -3.116188e-16 -8.976263e-01  4.407573e-01
   outer loop
     vertex  4.794375e+02  1.225625e+02 -4.075000e+00
     vertex  4.643625e+02  1.225625e+02 -4.075000e+00
     vertex  4.819500e+02  1.126929e+02 -2.417500e+01
   endloop
 endfacet
 facet normal  8.164420e-01 -4.713730e-01  3.335114e-01
   outer loop
     vertex  4.794375e+02  1.225625e+02 -4.075000e+00
     vertex  4.819500e+02  1.126929e+02 -2.417500e+01
     vertex  4.920000e+02  1.301000e+02 -2.417500e+01
   endloop
 endfacet
 facet normal  8.479983e-01  0.000000e+00  5.299989e-01
   outer loop
     vertex  4.920000e+02  1.301000e+02 -2.417500e+01
     vertex  4.794375e+02  1.376375e+02 -4.075000e+00
     vertex  4.794375e+02  1.225625e+02 -4.075000e+00
   endloop
 endfacet
 facet normal  8.164420e-01  4.713730e-01  3.335114e-01
   outer loop
     vertex  4.794375e+02  1.376375e+02 -4.075000e+00
     vertex  4.920000e+02  1.301000e+02 -2.417500e+01
     vertex  4.819500e+02  1.475071e+02 -2.417500e+01
   endloop
 endfacet
 facet normal  8.660254e-01  5.000000e-01  0.000000e+00
   outer loop
     vertex  4.920000e+02  1.301000e+02 -3.020500e+01
     vertex  4.819500e+02  1.475071e+02 -3.020500e+01
     vertex  4.819500e+02  1.475071e+02 -2.417500e+01
   endloop
 endfacet
 facet normal  8.660254e-01  5.000000e-01  0.000000e+00
   outer loop
     vertex  4.920000e+02  1.301000e+02 -2.417500e+01
     vertex  4.920000e+02  1.301000e+02 -3.020500e+01
     vertex  4.819500e+02  1.475071e+02 -2.417500e+01
   endloop
 endfacet
 facet normal  8.660254e-01 -5.000000e-01  0.000000e+00
   outer loop
     vertex  4.819500e+02  1.126929e+02 -3.020500e+01
     vertex  4.920000e+02  1.301000e+02 -3.020500e+01
     vertex  4.920000e+02  1.301000e+02 -2.417500e+01
   endloop
 endfacet
 facet normal  8.660254e-01 -5.000000e-01  0.000000e+00
   outer loop
     vertex  4.819500e+02  1.126929e+02 -2.417500e+01
     vertex  4.819500e+02  1.126929e+02 -3.020500e+01
     vertex  4.920000e+02  1.301000e+02 -2.417500e+01
   endloop
 endfacet
 facet normal -0.000000e+00 -1.000000e+00  0.000000e+00
   outer loop
     vertex  4.819500e+02  1.126929e+02 -3.020500e+01
     vertex  4.618500e+02  1.126929e+02 -2.417500e+01
     vertex  4.618500e+02  1.126929e+02 -3.020500e+01
   endloop
 endfacet
 facet normal  0.000000e+00 -1.000000e+00 -0.000000e+00
   outer loop
     vertex  4.819500e+02  1.126929e+02 -2.417500e+01
     vertex  4.618500e+02  1.126929e+02 -2.417500e+01
     vertex  4.819500e+02  1.126929e+02 -3.020500e+01
   endloop
 endfacet
 facet normal  7.070077e-16  0.000000e+00 -1.000000e+00
   outer loop
     vertex  4.618500e+02  1.475071e+02 -3.020500e+01
     vertex  4.618500e+02  1.126929e+02 -3.020500e+01
     vertex  4.518000e+02  1.301000e+02 -3.020500e+01
   endloop
 endfacet
 facet normal  5.302558e-16  0.000000e+00 -1.000000e+00
   outer loop
     vertex  4.819500e+02  1.475071e+02 -3.020500e+01
     vertex  4.819500e+02  1.126929e+02 -3.020500e+01
     vertex  4.618500e+02  1.126929e+02 -3.020500e+01
   endloop
 endfacet
 facet normal  7.070077e-16  0.000000e+00 -1.000000e+00
   outer loop
     vertex  4.819500e+02  1.475071e+02 -3.020500e+01
     vertex  4.920000e+02  1.301000e+02 -3.020500e+01
     vertex  4.819500e+02  1.126929e+02 -3.020500e+01
   endloop
 endfacet
 facet normal  5.302558e-16  0.000000e+00 -1.000000e+00
   outer loop
     vertex  4.819500e+02  1.475071e+02 -3.020500e+01
     vertex  4.618500e+02  1.126929e+02 -3.020500e+01
     vertex  4.618500e+02  1.475071e+02 -3.020500e+01
   endloop
 endfacet
 facet normal  0.000000e+00  1.000000e+00 -0.000000e+00
   outer loop
     vertex  4.819500e+02  1.475071e+02 -3.020500e+01
     vertex  4.618500e+02  1.475071e+02 -2.417500e+01
     vertex  4.819500e+02  1.475071e+02 -2.417500e+01
   endloop
 endfacet
 facet normal  0.000000e+00  1.000000e+00  0.000000e+00
   outer loop
     vertex  4.819500e+02  1.475071e+02 -3.020500e+01
     vertex  4.618500e+02  1.475071e+02 -3.020500e+01
     vertex  4.618500e+02  1.475071e+02 -2.417500e+01
   endloop
 endfacet
 facet normal -3.367847e-16  8.976263e-01  4.407573e-01
   outer loop
     vertex  4.819500e+02  1.475071e+02 -2.417500e+01
     vertex  4.643625e+02  1.376375e+02 -4.075000e+00
     vertex  4.794375e+02  1.376375e+02 -4.075000e+00
   endloop
 endfacet
 facet normal -2.337141e-16  8.976263e-01  4.407573e-01
   outer loop
     vertex  4.819500e+02  1.475071e+02 -2.417500e+01
     vertex  4.618500e+02  1.475071e+02 -2.417500e+01
     vertex  4.643625e+02  1.376375e+02 -4.075000e+00
   endloop
 endfacet
 facet normal -7.070077e-16  0.000000e+00  1.000000e+00
   outer loop
     vertex  4.794375e+02  1.376375e+02 -4.075000e+00
     vertex  4.643625e+02  1.225625e+02 -4.075000e+00
     vertex  4.794375e+02  1.225625e+02 -4.075000e+00
   endloop
 endfacet
 facet normal -7.070077e-16  0.000000e+00  1.000000e+00
   outer loop
     vertex  4.643625e+02  1.376375e+02 -4.075000e+00
     vertex  4.643625e+02  1.225625e+02 -4.075000e+00
     vertex  4.794375e+02  1.376375e+02 -4.075000e+00
   endloop
 endfacet
endsolid
