solid 
 facet normal  0.000000e+00 -0.000000e+00 -1.000000e+00
   outer loop
     vertex  4.620000e+02  8.242051e+01 -3.014000e+01
     vertex  4.620000e+02  4.777949e+01 -3.014000e+01
     vertex  4.520000e+02  6.510000e+01 -3.014000e+01
   endloop
 endfacet
 facet normal  0.000000e+00 -0.000000e+00 -1.000000e+00
   outer loop
     vertex  4.820000e+02  8.242051e+01 -3.014000e+01
     vertex  4.820000e+02  4.777949e+01 -3.014000e+01
     vertex  4.620000e+02  4.777949e+01 -3.014000e+01
   endloop
 endfacet
 facet normal  0.000000e+00  0.000000e+00 -1.000000e+00
   outer loop
     vertex  4.820000e+02  8.242051e+01 -3.014000e+01
     vertex  4.920000e+02  6.510000e+01 -3.014000e+01
     vertex  4.820000e+02  4.777949e+01 -3.014000e+01
   endloop
 endfacet
 facet normal -0.000000e+00  0.000000e+00 -1.000000e+00
   outer loop
     vertex  4.820000e+02  8.242051e+01 -3.014000e+01
     vertex  4.620000e+02  4.777949e+01 -3.014000e+01
     vertex  4.620000e+02  8.242051e+01 -3.014000e+01
   endloop
 endfacet
 facet normal  0.000000e+00  1.000000e+00  0.000000e+00
   outer loop
     vertex  4.620000e+02  8.242051e+01 -2.414000e+01
     vertex  4.820000e+02  8.242051e+01 -3.014000e+01
     vertex  4.620000e+02  8.242051e+01 -3.014000e+01
   endloop
 endfacet
 facet normal -0.000000e+00  1.000000e+00  0.000000e+00
   outer loop
     vertex  4.620000e+02  8.242051e+01 -2.414000e+01
     vertex  4.820000e+02  8.242051e+01 -2.414000e+01
     vertex  4.820000e+02  8.242051e+01 -3.014000e+01
   endloop
 endfacet
 facet normal -8.660254e-01  5.000000e-01  0.000000e+00
   outer loop
     vertex  4.520000e+02  6.510000e+01 -2.414000e+01
     vertex  4.620000e+02  8.242051e+01 -3.014000e+01
     vertex  4.520000e+02  6.510000e+01 -3.014000e+01
   endloop
 endfacet
 facet normal -8.660254e-01  5.000000e-01  0.000000e+00
   outer loop
     vertex  4.520000e+02  6.510000e+01 -2.414000e+01
     vertex  4.620000e+02  8.242051e+01 -2.414000e+01
     vertex  4.620000e+02  8.242051e+01 -3.014000e+01
   endloop
 endfacet
 facet normal -8.660254e-01 -5.000000e-01 -0.000000e+00
   outer loop
     vertex  4.620000e+02  4.777949e+01 -2.414000e+01
     vertex  4.520000e+02  6.510000e+01 -3.014000e+01
     vertex  4.620000e+02  4.777949e+01 -3.014000e+01
   endloop
 endfacet
 facet normal -8.660254e-01 -5.000000e-01  0.000000e+00
   outer loop
     vertex  4.620000e+02  4.777949e+01 -2.414000e+01
     vertex  4.520000e+02  6.510000e+01 -2.414000e+01
     vertex  4.520000e+02  6.510000e+01 -3.014000e+01
   endloop
 endfacet
 facet normal  0.000000e+00  0.000000e+00  1.000000e+00
   outer loop
     vertex  4.645000e+02  7.260000e+01 -4.140000e+00
     vertex  4.645000e+02  5.760000e+01 -4.140000e+00
     vertex  4.795000e+02  5.760000e+01 -4.140000e+00
   endloop
 endfacet
 facet normal -0.000000e+00  0.000000e+00  1.000000e+00
   outer loop
     vertex  4.645000e+02  7.260000e+01 -4.140000e+00
     vertex  4.795000e+02  5.760000e+01 -4.140000e+00
     vertex  4.795000e+02  7.260000e+01 -4.140000e+00
   endloop
 endfacet
 facet normal -0.000000e+00 -1.000000e+00  0.000000e+00
   outer loop
     vertex  4.795000e+02  5.760000e+01 -4.140000e+00
     vertex  4.645000e+02  5.760000e+01 -4.140000e+00
     vertex  4.645000e+02  5.760000e+01 -2.414000e+01
   endloop
 endfacet
 facet normal  0.000000e+00 -1.000000e+00 -0.000000e+00
   outer loop
     vertex  4.795000e+02  5.760000e+01 -4.140000e+00
     vertex  4.645000e+02  5.760000e+01 -2.414000e+01
     vertex  4.795000e+02  5.760000e+01 -2.414000e+01
   endloop
 endfacet
 facet normal -1.000000e+00  0.000000e+00  0.000000e+00
   outer loop
     vertex  4.645000e+02  5.760000e+01 -4.140000e+00
     vertex  4.645000e+02  7.260000e+01 -4.140000e+00
     vertex  4.645000e+02  7.260000e+01 -2.414000e+01
   endloop
 endfacet
 facet normal -1.000000e+00  0.000000e+00  0.000000e+00
   outer loop
     vertex  4.645000e+02  5.760000e+01 -4.140000e+00
     vertex  4.645000e+02  7.260000e+01 -2.414000e+01
     vertex  4.645000e+02  5.760000e+01 -2.414000e+01
   endloop
 endfacet
 facet normal -0.000000e+00  1.000000e+00  0.000000e+00
   outer loop
     vertex  4.645000e+02  7.260000e+01 -4.140000e+00
     vertex  4.795000e+02  7.260000e+01 -4.140000e+00
     vertex  4.795000e+02  7.260000e+01 -2.414000e+01
   endloop
 endfacet
 facet normal  0.000000e+00  1.000000e+00  0.000000e+00
   outer loop
     vertex  4.645000e+02  7.260000e+01 -4.140000e+00
     vertex  4.795000e+02  7.260000e+01 -2.414000e+01
     vertex  4.645000e+02  7.260000e+01 -2.414000e+01
   endloop
 endfacet
 facet normal  1.000000e+00  0.000000e+00  0.000000e+00
   outer loop
     vertex  4.795000e+02  7.260000e+01 -4.140000e+00
     vertex  4.795000e+02  5.760000e+01 -4.140000e+00
     vertex  4.795000e+02  5.760000e+01 -2.414000e+01
   endloop
 endfacet
 facet normal  1.000000e+00  0.000000e+00  0.000000e+00
   outer loop
     vertex  4.795000e+02  7.260000e+01 -4.140000e+00
     vertex  4.795000e+02  5.760000e+01 -2.414000e+01
     vertex  4.795000e+02  7.260000e+01 -2.414000e+01
   endloop
 endfacet
 facet normal -0.000000e+00  0.000000e+00  1.000000e+00
   outer loop
     vertex  4.795000e+02  5.760000e+01 -2.414000e+01
     vertex  4.820000e+02  4.777949e+01 -2.414000e+01
     vertex  4.920000e+02  6.510000e+01 -2.414000e+01
   endloop
 endfacet
 facet normal  0.000000e+00  0.000000e+00  1.000000e+00
   outer loop
     vertex  4.620000e+02  4.777949e+01 -2.414000e+01
     vertex  4.820000e+02  4.777949e+01 -2.414000e+01
     vertex  4.795000e+02  5.760000e+01 -2.414000e+01
   endloop
 endfacet
 facet normal -0.000000e+00  0.000000e+00  1.000000e+00
   outer loop
     vertex  4.645000e+02  5.760000e+01 -2.414000e+01
     vertex  4.620000e+02  4.777949e+01 -2.414000e+01
     vertex  4.795000e+02  5.760000e+01 -2.414000e+01
   endloop
 endfacet
 facet normal  0.000000e+00  0.000000e+00  1.000000e+00
   outer loop
     vertex  4.795000e+02  7.260000e+01 -2.414000e+01
     vertex  4.795000e+02  5.760000e+01 -2.414000e+01
     vertex  4.920000e+02  6.510000e+01 -2.414000e+01
   endloop
 endfacet
 facet normal  0.000000e+00  0.000000e+00  1.000000e+00
   outer loop
     vertex  4.820000e+02  8.242051e+01 -2.414000e+01
     vertex  4.795000e+02  7.260000e+01 -2.414000e+01
     vertex  4.920000e+02  6.510000e+01 -2.414000e+01
   endloop
 endfacet
 facet normal -0.000000e+00  0.000000e+00  1.000000e+00
   outer loop
     vertex  4.520000e+02  6.510000e+01 -2.414000e+01
     vertex  4.645000e+02  5.760000e+01 -2.414000e+01
     vertex  4.645000e+02  7.260000e+01 -2.414000e+01
   endloop
 endfacet
 facet normal  0.000000e+00  0.000000e+00  1.000000e+00
   outer loop
     vertex  4.520000e+02  6.510000e+01 -2.414000e+01
     vertex  4.620000e+02  4.777949e+01 -2.414000e+01
     vertex  4.645000e+02  5.760000e+01 -2.414000e+01
   endloop
 endfacet
 facet normal  0.000000e+00  0.000000e+00  1.000000e+00
   outer loop
     vertex  4.620000e+02  8.242051e+01 -2.414000e+01
     vertex  4.645000e+02  7.260000e+01 -2.414000e+01
     vertex  4.795000e+02  7.260000e+01 -2.414000e+01
   endloop
 endfacet
 facet normal  0.000000e+00  0.000000e+00  1.000000e+00
   outer loop
     vertex  4.620000e+02  8.242051e+01 -2.414000e+01
     vertex  4.520000e+02  6.510000e+01 -2.414000e+01
     vertex  4.645000e+02  7.260000e+01 -2.414000e+01
   endloop
 endfacet
 facet normal -0.000000e+00  0.000000e+00  1.000000e+00
   outer loop
     vertex  4.620000e+02  8.242051e+01 -2.414000e+01
     vertex  4.795000e+02  7.260000e+01 -2.414000e+01
     vertex  4.820000e+02  8.242051e+01 -2.414000e+01
   endloop
 endfacet
 facet normal  8.660254e-01 -5.000000e-01  0.000000e+00
   outer loop
     vertex  4.920000e+02  6.510000e+01 -2.414000e+01
     vertex  4.820000e+02  4.777949e+01 -3.014000e+01
     vertex  4.920000e+02  6.510000e+01 -3.014000e+01
   endloop
 endfacet
 facet normal  8.660254e-01 -5.000000e-01  0.000000e+00
   outer loop
     vertex  4.920000e+02  6.510000e+01 -2.414000e+01
     vertex  4.820000e+02  4.777949e+01 -2.414000e+01
     vertex  4.820000e+02  4.777949e+01 -3.014000e+01
   endloop
 endfacet
 facet normal  0.000000e+00 -1.000000e+00 -0.000000e+00
   outer loop
     vertex  4.820000e+02  4.777949e+01 -2.414000e+01
     vertex  4.620000e+02  4.777949e+01 -3.014000e+01
     vertex  4.820000e+02  4.777949e+01 -3.014000e+01
   endloop
 endfacet
 facet normal -0.000000e+00 -1.000000e+00  0.000000e+00
   outer loop
     vertex  4.820000e+02  4.777949e+01 -2.414000e+01
     vertex  4.620000e+02  4.777949e+01 -2.414000e+01
     vertex  4.620000e+02  4.777949e+01 -3.014000e+01
   endloop
 endfacet
 facet normal  8.660254e-01  5.000000e-01  0.000000e+00
   outer loop
     vertex  4.820000e+02  8.242051e+01 -2.414000e+01
     vertex  4.920000e+02  6.510000e+01 -3.014000e+01
     vertex  4.820000e+02  8.242051e+01 -3.014000e+01
   endloop
 endfacet
 facet normal  8.660254e-01  5.000000e-01  0.000000e+00
   outer loop
     vertex  4.820000e+02  8.242051e+01 -2.414000e+01
     vertex  4.920000e+02  6.510000e+01 -2.414000e+01
     vertex  4.920000e+02  6.510000e+01 -3.014000e+01
   endloop
 endfacet
endsolid
