solid 
 facet normal  0.000000e+00 -1.000000e+00  0.000000e+00
   outer loop
     vertex  3.520500e+02  4.709289e+01 -3.020500e+01
     vertex  3.319500e+02  4.709289e+01 -2.417500e+01
     vertex  3.319500e+02  4.709289e+01 -3.020500e+01
   endloop
 endfacet
 facet normal -0.000000e+00 -1.000000e+00 -0.000000e+00
   outer loop
     vertex  3.520500e+02  4.709289e+01 -2.417500e+01
     vertex  3.319500e+02  4.709289e+01 -2.417500e+01
     vertex  3.520500e+02  4.709289e+01 -3.020500e+01
   endloop
 endfacet
 facet normal -8.660254e-01 -5.000000e-01 -0.000000e+00
   outer loop
     vertex  3.219000e+02  6.450000e+01 -2.417500e+01
     vertex  3.219000e+02  6.450000e+01 -3.020500e+01
     vertex  3.319500e+02  4.709289e+01 -3.020500e+01
   endloop
 endfacet
 facet normal -8.660254e-01 -5.000000e-01  0.000000e+00
   outer loop
     vertex  3.219000e+02  6.450000e+01 -2.417500e+01
     vertex  3.319500e+02  4.709289e+01 -3.020500e+01
     vertex  3.319500e+02  4.709289e+01 -2.417500e+01
   endloop
 endfacet
 facet normal -8.164420e-01 -4.713730e-01  3.335114e-01
   outer loop
     vertex  3.344625e+02  5.696250e+01 -4.075000e+00
     vertex  3.219000e+02  6.450000e+01 -2.417500e+01
     vertex  3.319500e+02  4.709289e+01 -2.417500e+01
   endloop
 endfacet
 facet normal  0.000000e+00 -8.976263e-01  4.407573e-01
   outer loop
     vertex  3.495375e+02  5.696250e+01 -4.075000e+00
     vertex  3.319500e+02  4.709289e+01 -2.417500e+01
     vertex  3.520500e+02  4.709289e+01 -2.417500e+01
   endloop
 endfacet
 facet normal  0.000000e+00 -8.976263e-01  4.407573e-01
   outer loop
     vertex  3.495375e+02  5.696250e+01 -4.075000e+00
     vertex  3.344625e+02  5.696250e+01 -4.075000e+00
     vertex  3.319500e+02  4.709289e+01 -2.417500e+01
   endloop
 endfacet
 facet normal  8.164420e-01 -4.713730e-01  3.335114e-01
   outer loop
     vertex  3.495375e+02  5.696250e+01 -4.075000e+00
     vertex  3.520500e+02  4.709289e+01 -2.417500e+01
     vertex  3.621000e+02  6.450000e+01 -2.417500e+01
   endloop
 endfacet
 facet normal  8.479983e-01  0.000000e+00  5.299989e-01
   outer loop
     vertex  3.621000e+02  6.450000e+01 -2.417500e+01
     vertex  3.495375e+02  7.203750e+01 -4.075000e+00
     vertex  3.495375e+02  5.696250e+01 -4.075000e+00
   endloop
 endfacet
 facet normal  8.164420e-01  4.713730e-01  3.335114e-01
   outer loop
     vertex  3.495375e+02  7.203750e+01 -4.075000e+00
     vertex  3.621000e+02  6.450000e+01 -2.417500e+01
     vertex  3.520500e+02  8.190711e+01 -2.417500e+01
   endloop
 endfacet
 facet normal  8.660254e-01  5.000000e-01  0.000000e+00
   outer loop
     vertex  3.621000e+02  6.450000e+01 -2.417500e+01
     vertex  3.520500e+02  8.190711e+01 -3.020500e+01
     vertex  3.520500e+02  8.190711e+01 -2.417500e+01
   endloop
 endfacet
 facet normal  8.660254e-01  5.000000e-01  0.000000e+00
   outer loop
     vertex  3.621000e+02  6.450000e+01 -2.417500e+01
     vertex  3.621000e+02  6.450000e+01 -3.020500e+01
     vertex  3.520500e+02  8.190711e+01 -3.020500e+01
   endloop
 endfacet
 facet normal  8.660254e-01 -5.000000e-01  0.000000e+00
   outer loop
     vertex  3.520500e+02  4.709289e+01 -2.417500e+01
     vertex  3.621000e+02  6.450000e+01 -3.020500e+01
     vertex  3.621000e+02  6.450000e+01 -2.417500e+01
   endloop
 endfacet
 facet normal  8.660254e-01 -5.000000e-01  0.000000e+00
   outer loop
     vertex  3.520500e+02  4.709289e+01 -2.417500e+01
     vertex  3.520500e+02  4.709289e+01 -3.020500e+01
     vertex  3.621000e+02  6.450000e+01 -3.020500e+01
   endloop
 endfacet
 facet normal  0.000000e+00 -0.000000e+00 -1.000000e+00
   outer loop
     vertex  3.319500e+02  8.190711e+01 -3.020500e+01
     vertex  3.319500e+02  4.709289e+01 -3.020500e+01
     vertex  3.219000e+02  6.450000e+01 -3.020500e+01
   endloop
 endfacet
 facet normal  0.000000e+00 -0.000000e+00 -1.000000e+00
   outer loop
     vertex  3.520500e+02  8.190711e+01 -3.020500e+01
     vertex  3.520500e+02  4.709289e+01 -3.020500e+01
     vertex  3.319500e+02  4.709289e+01 -3.020500e+01
   endloop
 endfacet
 facet normal  0.000000e+00  0.000000e+00 -1.000000e+00
   outer loop
     vertex  3.520500e+02  8.190711e+01 -3.020500e+01
     vertex  3.621000e+02  6.450000e+01 -3.020500e+01
     vertex  3.520500e+02  4.709289e+01 -3.020500e+01
   endloop
 endfacet
 facet normal -0.000000e+00  0.000000e+00 -1.000000e+00
   outer loop
     vertex  3.520500e+02  8.190711e+01 -3.020500e+01
     vertex  3.319500e+02  4.709289e+01 -3.020500e+01
     vertex  3.319500e+02  8.190711e+01 -3.020500e+01
   endloop
 endfacet
 facet normal  0.000000e+00  1.000000e+00  0.000000e+00
   outer loop
     vertex  3.520500e+02  8.190711e+01 -2.417500e+01
     vertex  3.319500e+02  8.190711e+01 -3.020500e+01
     vertex  3.319500e+02  8.190711e+01 -2.417500e+01
   endloop
 endfacet
 facet normal  0.000000e+00  1.000000e+00 -0.000000e+00
   outer loop
     vertex  3.520500e+02  8.190711e+01 -3.020500e+01
     vertex  3.319500e+02  8.190711e+01 -3.020500e+01
     vertex  3.520500e+02  8.190711e+01 -2.417500e+01
   endloop
 endfacet
 facet normal  0.000000e+00  8.976263e-01  4.407573e-01
   outer loop
     vertex  3.520500e+02  8.190711e+01 -2.417500e+01
     vertex  3.344625e+02  7.203750e+01 -4.075000e+00
     vertex  3.495375e+02  7.203750e+01 -4.075000e+00
   endloop
 endfacet
 facet normal  0.000000e+00  8.976263e-01  4.407573e-01
   outer loop
     vertex  3.520500e+02  8.190711e+01 -2.417500e+01
     vertex  3.319500e+02  8.190711e+01 -2.417500e+01
     vertex  3.344625e+02  7.203750e+01 -4.075000e+00
   endloop
 endfacet
 facet normal -0.000000e+00  0.000000e+00  1.000000e+00
   outer loop
     vertex  3.344625e+02  7.203750e+01 -4.075000e+00
     vertex  3.495375e+02  5.696250e+01 -4.075000e+00
     vertex  3.495375e+02  7.203750e+01 -4.075000e+00
   endloop
 endfacet
 facet normal  0.000000e+00  0.000000e+00  1.000000e+00
   outer loop
     vertex  3.344625e+02  7.203750e+01 -4.075000e+00
     vertex  3.344625e+02  5.696250e+01 -4.075000e+00
     vertex  3.495375e+02  5.696250e+01 -4.075000e+00
   endloop
 endfacet
 facet normal -8.479983e-01  0.000000e+00  5.299989e-01
   outer loop
     vertex  3.344625e+02  5.696250e+01 -4.075000e+00
     vertex  3.344625e+02  7.203750e+01 -4.075000e+00
     vertex  3.219000e+02  6.450000e+01 -2.417500e+01
   endloop
 endfacet
 facet normal -8.164420e-01  4.713730e-01  3.335114e-01
   outer loop
     vertex  3.344625e+02  7.203750e+01 -4.075000e+00
     vertex  3.319500e+02  8.190711e+01 -2.417500e+01
     vertex  3.219000e+02  6.450000e+01 -2.417500e+01
   endloop
 endfacet
 facet normal -8.660254e-01  5.000000e-01  0.000000e+00
   outer loop
     vertex  3.319500e+02  8.190711e+01 -2.417500e+01
     vertex  3.219000e+02  6.450000e+01 -3.020500e+01
     vertex  3.219000e+02  6.450000e+01 -2.417500e+01
   endloop
 endfacet
 facet normal -8.660254e-01  5.000000e-01  0.000000e+00
   outer loop
     vertex  3.319500e+02  8.190711e+01 -2.417500e+01
     vertex  3.319500e+02  8.190711e+01 -3.020500e+01
     vertex  3.219000e+02  6.450000e+01 -3.020500e+01
   endloop
 endfacet
endsolid
