solid 
 facet normal -8.660254e-01 -5.000000e-01 -0.000000e+00
   outer loop
     vertex  4.519000e+02  6.510000e+01 -2.417500e+01
     vertex  4.519000e+02  6.510000e+01 -3.020500e+01
     vertex  4.619500e+02  4.769289e+01 -3.020500e+01
   endloop
 endfacet
 facet normal -8.660254e-01 -5.000000e-01  0.000000e+00
   outer loop
     vertex  4.519000e+02  6.510000e+01 -2.417500e+01
     vertex  4.619500e+02  4.769289e+01 -3.020500e+01
     vertex  4.619500e+02  4.769289e+01 -2.417500e+01
   endloop
 endfacet
 facet normal -8.660254e-01  5.000000e-01  0.000000e+00
   outer loop
     vertex  4.619500e+02  8.250711e+01 -3.020500e+01
     vertex  4.519000e+02  6.510000e+01 -3.020500e+01
     vertex  4.519000e+02  6.510000e+01 -2.417500e+01
   endloop
 endfacet
 facet normal -8.660254e-01  5.000000e-01  0.000000e+00
   outer loop
     vertex  4.619500e+02  8.250711e+01 -2.417500e+01
     vertex  4.619500e+02  8.250711e+01 -3.020500e+01
     vertex  4.519000e+02  6.510000e+01 -2.417500e+01
   endloop
 endfacet
 facet normal  0.000000e+00 -0.000000e+00 -1.000000e+00
   outer loop
     vertex  4.619500e+02  8.250711e+01 -3.020500e+01
     vertex  4.619500e+02  4.769289e+01 -3.020500e+01
     vertex  4.519000e+02  6.510000e+01 -3.020500e+01
   endloop
 endfacet
 facet normal  0.000000e+00 -0.000000e+00 -1.000000e+00
   outer loop
     vertex  4.820500e+02  8.250711e+01 -3.020500e+01
     vertex  4.820500e+02  4.769289e+01 -3.020500e+01
     vertex  4.619500e+02  4.769289e+01 -3.020500e+01
   endloop
 endfacet
 facet normal  0.000000e+00  0.000000e+00 -1.000000e+00
   outer loop
     vertex  4.820500e+02  8.250711e+01 -3.020500e+01
     vertex  4.921000e+02  6.510000e+01 -3.020500e+01
     vertex  4.820500e+02  4.769289e+01 -3.020500e+01
   endloop
 endfacet
 facet normal -0.000000e+00  0.000000e+00 -1.000000e+00
   outer loop
     vertex  4.820500e+02  8.250711e+01 -3.020500e+01
     vertex  4.619500e+02  4.769289e+01 -3.020500e+01
     vertex  4.619500e+02  8.250711e+01 -3.020500e+01
   endloop
 endfacet
 facet normal  0.000000e+00  1.000000e+00  0.000000e+00
   outer loop
     vertex  4.820500e+02  8.250711e+01 -2.417500e+01
     vertex  4.619500e+02  8.250711e+01 -3.020500e+01
     vertex  4.619500e+02  8.250711e+01 -2.417500e+01
   endloop
 endfacet
 facet normal  0.000000e+00  1.000000e+00 -0.000000e+00
   outer loop
     vertex  4.820500e+02  8.250711e+01 -3.020500e+01
     vertex  4.619500e+02  8.250711e+01 -3.020500e+01
     vertex  4.820500e+02  8.250711e+01 -2.417500e+01
   endloop
 endfacet
 facet normal -8.164420e-01  4.713730e-01  3.335114e-01
   outer loop
     vertex  4.644625e+02  7.263750e+01 -4.075000e+00
     vertex  4.619500e+02  8.250711e+01 -2.417500e+01
     vertex  4.519000e+02  6.510000e+01 -2.417500e+01
   endloop
 endfacet
 facet normal -8.479983e-01  0.000000e+00  5.299989e-01
   outer loop
     vertex  4.644625e+02  5.756250e+01 -4.075000e+00
     vertex  4.644625e+02  7.263750e+01 -4.075000e+00
     vertex  4.519000e+02  6.510000e+01 -2.417500e+01
   endloop
 endfacet
 facet normal -8.164420e-01 -4.713730e-01  3.335114e-01
   outer loop
     vertex  4.644625e+02  5.756250e+01 -4.075000e+00
     vertex  4.519000e+02  6.510000e+01 -2.417500e+01
     vertex  4.619500e+02  4.769289e+01 -2.417500e+01
   endloop
 endfacet
 facet normal  0.000000e+00 -8.976263e-01  4.407573e-01
   outer loop
     vertex  4.795375e+02  5.756250e+01 -4.075000e+00
     vertex  4.619500e+02  4.769289e+01 -2.417500e+01
     vertex  4.820500e+02  4.769289e+01 -2.417500e+01
   endloop
 endfacet
 facet normal  0.000000e+00 -8.976263e-01  4.407573e-01
   outer loop
     vertex  4.795375e+02  5.756250e+01 -4.075000e+00
     vertex  4.644625e+02  5.756250e+01 -4.075000e+00
     vertex  4.619500e+02  4.769289e+01 -2.417500e+01
   endloop
 endfacet
 facet normal  8.164420e-01 -4.713730e-01  3.335114e-01
   outer loop
     vertex  4.795375e+02  5.756250e+01 -4.075000e+00
     vertex  4.820500e+02  4.769289e+01 -2.417500e+01
     vertex  4.921000e+02  6.510000e+01 -2.417500e+01
   endloop
 endfacet
 facet normal  8.479983e-01  0.000000e+00  5.299989e-01
   outer loop
     vertex  4.921000e+02  6.510000e+01 -2.417500e+01
     vertex  4.795375e+02  7.263750e+01 -4.075000e+00
     vertex  4.795375e+02  5.756250e+01 -4.075000e+00
   endloop
 endfacet
 facet normal  8.164420e-01  4.713730e-01  3.335114e-01
   outer loop
     vertex  4.795375e+02  7.263750e+01 -4.075000e+00
     vertex  4.921000e+02  6.510000e+01 -2.417500e+01
     vertex  4.820500e+02  8.250711e+01 -2.417500e+01
   endloop
 endfacet
 facet normal  8.660254e-01  5.000000e-01  0.000000e+00
   outer loop
     vertex  4.921000e+02  6.510000e+01 -2.417500e+01
     vertex  4.820500e+02  8.250711e+01 -3.020500e+01
     vertex  4.820500e+02  8.250711e+01 -2.417500e+01
   endloop
 endfacet
 facet normal  8.660254e-01  5.000000e-01  0.000000e+00
   outer loop
     vertex  4.921000e+02  6.510000e+01 -2.417500e+01
     vertex  4.921000e+02  6.510000e+01 -3.020500e+01
     vertex  4.820500e+02  8.250711e+01 -3.020500e+01
   endloop
 endfacet
 facet normal  8.660254e-01 -5.000000e-01  0.000000e+00
   outer loop
     vertex  4.820500e+02  4.769289e+01 -2.417500e+01
     vertex  4.820500e+02  4.769289e+01 -3.020500e+01
     vertex  4.921000e+02  6.510000e+01 -3.020500e+01
   endloop
 endfacet
 facet normal  8.660254e-01 -5.000000e-01  0.000000e+00
   outer loop
     vertex  4.820500e+02  4.769289e+01 -2.417500e+01
     vertex  4.921000e+02  6.510000e+01 -3.020500e+01
     vertex  4.921000e+02  6.510000e+01 -2.417500e+01
   endloop
 endfacet
 facet normal  0.000000e+00 -1.000000e+00  0.000000e+00
   outer loop
     vertex  4.820500e+02  4.769289e+01 -3.020500e+01
     vertex  4.619500e+02  4.769289e+01 -2.417500e+01
     vertex  4.619500e+02  4.769289e+01 -3.020500e+01
   endloop
 endfacet
 facet normal -0.000000e+00 -1.000000e+00 -0.000000e+00
   outer loop
     vertex  4.820500e+02  4.769289e+01 -2.417500e+01
     vertex  4.619500e+02  4.769289e+01 -2.417500e+01
     vertex  4.820500e+02  4.769289e+01 -3.020500e+01
   endloop
 endfacet
 facet normal  0.000000e+00  8.976263e-01  4.407573e-01
   outer loop
     vertex  4.820500e+02  8.250711e+01 -2.417500e+01
     vertex  4.644625e+02  7.263750e+01 -4.075000e+00
     vertex  4.795375e+02  7.263750e+01 -4.075000e+00
   endloop
 endfacet
 facet normal  0.000000e+00  8.976263e-01  4.407573e-01
   outer loop
     vertex  4.820500e+02  8.250711e+01 -2.417500e+01
     vertex  4.619500e+02  8.250711e+01 -2.417500e+01
     vertex  4.644625e+02  7.263750e+01 -4.075000e+00
   endloop
 endfacet
 facet normal -0.000000e+00  0.000000e+00  1.000000e+00
   outer loop
     vertex  4.644625e+02  7.263750e+01 -4.075000e+00
     vertex  4.795375e+02  5.756250e+01 -4.075000e+00
     vertex  4.795375e+02  7.263750e+01 -4.075000e+00
   endloop
 endfacet
 facet normal  0.000000e+00  0.000000e+00  1.000000e+00
   outer loop
     vertex  4.644625e+02  7.263750e+01 -4.075000e+00
     vertex  4.644625e+02  5.756250e+01 -4.075000e+00
     vertex  4.795375e+02  5.756250e+01 -4.075000e+00
   endloop
 endfacet
endsolid
