solid 
 facet normal -5.329071e-16  3.076740e-16 -1.000000e+00
   outer loop
     vertex  3.319000e+02  1.468205e+02 -3.014000e+01
     vertex  3.319000e+02  1.121795e+02 -3.014000e+01
     vertex  3.219000e+02  1.295000e+02 -3.014000e+01
   endloop
 endfacet
 facet normal  0.000000e+00  3.076740e-16 -1.000000e+00
   outer loop
     vertex  3.519000e+02  1.468205e+02 -3.014000e+01
     vertex  3.519000e+02  1.121795e+02 -3.014000e+01
     vertex  3.319000e+02  1.121795e+02 -3.014000e+01
   endloop
 endfacet
 facet normal  5.329071e-16  3.076740e-16 -1.000000e+00
   outer loop
     vertex  3.519000e+02  1.468205e+02 -3.014000e+01
     vertex  3.619000e+02  1.295000e+02 -3.014000e+01
     vertex  3.519000e+02  1.121795e+02 -3.014000e+01
   endloop
 endfacet
 facet normal  0.000000e+00  3.076740e-16 -1.000000e+00
   outer loop
     vertex  3.519000e+02  1.468205e+02 -3.014000e+01
     vertex  3.319000e+02  1.121795e+02 -3.014000e+01
     vertex  3.319000e+02  1.468205e+02 -3.014000e+01
   endloop
 endfacet
 facet normal  0.000000e+00  1.000000e+00  0.000000e+00
   outer loop
     vertex  3.319000e+02  1.468205e+02 -2.414000e+01
     vertex  3.519000e+02  1.468205e+02 -3.014000e+01
     vertex  3.319000e+02  1.468205e+02 -3.014000e+01
   endloop
 endfacet
 facet normal -0.000000e+00  1.000000e+00  0.000000e+00
   outer loop
     vertex  3.319000e+02  1.468205e+02 -2.414000e+01
     vertex  3.519000e+02  1.468205e+02 -2.414000e+01
     vertex  3.519000e+02  1.468205e+02 -3.014000e+01
   endloop
 endfacet
 facet normal -8.660254e-01  5.000000e-01  0.000000e+00
   outer loop
     vertex  3.219000e+02  1.295000e+02 -3.014000e+01
     vertex  3.319000e+02  1.468205e+02 -2.414000e+01
     vertex  3.319000e+02  1.468205e+02 -3.014000e+01
   endloop
 endfacet
 facet normal -8.660254e-01  5.000000e-01  0.000000e+00
   outer loop
     vertex  3.219000e+02  1.295000e+02 -2.414000e+01
     vertex  3.319000e+02  1.468205e+02 -2.414000e+01
     vertex  3.219000e+02  1.295000e+02 -3.014000e+01
   endloop
 endfacet
 facet normal -8.660254e-01 -5.000000e-01 -0.000000e+00
   outer loop
     vertex  3.319000e+02  1.121795e+02 -2.414000e+01
     vertex  3.219000e+02  1.295000e+02 -3.014000e+01
     vertex  3.319000e+02  1.121795e+02 -3.014000e+01
   endloop
 endfacet
 facet normal -8.660254e-01 -5.000000e-01  0.000000e+00
   outer loop
     vertex  3.319000e+02  1.121795e+02 -2.414000e+01
     vertex  3.219000e+02  1.295000e+02 -2.414000e+01
     vertex  3.219000e+02  1.295000e+02 -3.014000e+01
   endloop
 endfacet
 facet normal  0.000000e+00  0.000000e+00  1.000000e+00
   outer loop
     vertex  3.344000e+02  1.370000e+02 -4.140000e+00
     vertex  3.344000e+02  1.220000e+02 -4.140000e+00
     vertex  3.494000e+02  1.220000e+02 -4.140000e+00
   endloop
 endfacet
 facet normal -0.000000e+00  0.000000e+00  1.000000e+00
   outer loop
     vertex  3.344000e+02  1.370000e+02 -4.140000e+00
     vertex  3.494000e+02  1.220000e+02 -4.140000e+00
     vertex  3.494000e+02  1.370000e+02 -4.140000e+00
   endloop
 endfacet
 facet normal -0.000000e+00 -1.000000e+00  0.000000e+00
   outer loop
     vertex  3.494000e+02  1.220000e+02 -4.140000e+00
     vertex  3.344000e+02  1.220000e+02 -4.140000e+00
     vertex  3.344000e+02  1.220000e+02 -2.414000e+01
   endloop
 endfacet
 facet normal  0.000000e+00 -1.000000e+00 -0.000000e+00
   outer loop
     vertex  3.494000e+02  1.220000e+02 -4.140000e+00
     vertex  3.344000e+02  1.220000e+02 -2.414000e+01
     vertex  3.494000e+02  1.220000e+02 -2.414000e+01
   endloop
 endfacet
 facet normal -1.000000e+00  0.000000e+00 -0.000000e+00
   outer loop
     vertex  3.344000e+02  1.370000e+02 -4.140000e+00
     vertex  3.344000e+02  1.370000e+02 -2.414000e+01
     vertex  3.344000e+02  1.220000e+02 -2.414000e+01
   endloop
 endfacet
 facet normal -1.000000e+00  0.000000e+00  0.000000e+00
   outer loop
     vertex  3.344000e+02  1.220000e+02 -4.140000e+00
     vertex  3.344000e+02  1.370000e+02 -4.140000e+00
     vertex  3.344000e+02  1.220000e+02 -2.414000e+01
   endloop
 endfacet
 facet normal -0.000000e+00  1.000000e+00  1.421085e-15
   outer loop
     vertex  3.344000e+02  1.370000e+02 -4.140000e+00
     vertex  3.494000e+02  1.370000e+02 -4.140000e+00
     vertex  3.494000e+02  1.370000e+02 -2.414000e+01
   endloop
 endfacet
 facet normal  0.000000e+00  1.000000e+00  1.421085e-15
   outer loop
     vertex  3.344000e+02  1.370000e+02 -4.140000e+00
     vertex  3.494000e+02  1.370000e+02 -2.414000e+01
     vertex  3.344000e+02  1.370000e+02 -2.414000e+01
   endloop
 endfacet
 facet normal  1.000000e+00  0.000000e+00  0.000000e+00
   outer loop
     vertex  3.494000e+02  1.370000e+02 -4.140000e+00
     vertex  3.494000e+02  1.220000e+02 -4.140000e+00
     vertex  3.494000e+02  1.220000e+02 -2.414000e+01
   endloop
 endfacet
 facet normal  1.000000e+00  0.000000e+00  0.000000e+00
   outer loop
     vertex  3.494000e+02  1.370000e+02 -4.140000e+00
     vertex  3.494000e+02  1.220000e+02 -2.414000e+01
     vertex  3.494000e+02  1.370000e+02 -2.414000e+01
   endloop
 endfacet
 facet normal  1.300383e-16 -6.904257e-16  1.000000e+00
   outer loop
     vertex  3.494000e+02  1.220000e+02 -2.414000e+01
     vertex  3.519000e+02  1.121795e+02 -2.414000e+01
     vertex  3.619000e+02  1.295000e+02 -2.414000e+01
   endloop
 endfacet
 facet normal  0.000000e+00 -7.235295e-16  1.000000e+00
   outer loop
     vertex  3.344000e+02  1.220000e+02 -2.414000e+01
     vertex  3.319000e+02  1.121795e+02 -2.414000e+01
     vertex  3.519000e+02  1.121795e+02 -2.414000e+01
   endloop
 endfacet
 facet normal  0.000000e+00 -7.235295e-16  1.000000e+00
   outer loop
     vertex  3.344000e+02  1.220000e+02 -2.414000e+01
     vertex  3.519000e+02  1.121795e+02 -2.414000e+01
     vertex  3.494000e+02  1.220000e+02 -2.414000e+01
   endloop
 endfacet
 facet normal -1.421085e-16 -2.368476e-16  1.000000e+00
   outer loop
     vertex  3.494000e+02  1.370000e+02 -2.414000e+01
     vertex  3.494000e+02  1.220000e+02 -2.414000e+01
     vertex  3.619000e+02  1.295000e+02 -2.414000e+01
   endloop
 endfacet
 facet normal  0.000000e+00  0.000000e+00  1.000000e+00
   outer loop
     vertex  3.519000e+02  1.468205e+02 -2.414000e+01
     vertex  3.494000e+02  1.370000e+02 -2.414000e+01
     vertex  3.619000e+02  1.295000e+02 -2.414000e+01
   endloop
 endfacet
 facet normal  1.421085e-16 -2.368476e-16  1.000000e+00
   outer loop
     vertex  3.219000e+02  1.295000e+02 -2.414000e+01
     vertex  3.344000e+02  1.220000e+02 -2.414000e+01
     vertex  3.344000e+02  1.370000e+02 -2.414000e+01
   endloop
 endfacet
 facet normal -1.300383e-16 -6.904257e-16  1.000000e+00
   outer loop
     vertex  3.219000e+02  1.295000e+02 -2.414000e+01
     vertex  3.319000e+02  1.121795e+02 -2.414000e+01
     vertex  3.344000e+02  1.220000e+02 -2.414000e+01
   endloop
 endfacet
 facet normal  0.000000e+00  0.000000e+00  1.000000e+00
   outer loop
     vertex  3.319000e+02  1.468205e+02 -2.414000e+01
     vertex  3.344000e+02  1.370000e+02 -2.414000e+01
     vertex  3.494000e+02  1.370000e+02 -2.414000e+01
   endloop
 endfacet
 facet normal  0.000000e+00  0.000000e+00  1.000000e+00
   outer loop
     vertex  3.319000e+02  1.468205e+02 -2.414000e+01
     vertex  3.219000e+02  1.295000e+02 -2.414000e+01
     vertex  3.344000e+02  1.370000e+02 -2.414000e+01
   endloop
 endfacet
 facet normal -0.000000e+00  0.000000e+00  1.000000e+00
   outer loop
     vertex  3.319000e+02  1.468205e+02 -2.414000e+01
     vertex  3.494000e+02  1.370000e+02 -2.414000e+01
     vertex  3.519000e+02  1.468205e+02 -2.414000e+01
   endloop
 endfacet
 facet normal  8.660254e-01 -5.000000e-01  0.000000e+00
   outer loop
     vertex  3.619000e+02  1.295000e+02 -2.414000e+01
     vertex  3.519000e+02  1.121795e+02 -3.014000e+01
     vertex  3.619000e+02  1.295000e+02 -3.014000e+01
   endloop
 endfacet
 facet normal  8.660254e-01 -5.000000e-01  0.000000e+00
   outer loop
     vertex  3.619000e+02  1.295000e+02 -2.414000e+01
     vertex  3.519000e+02  1.121795e+02 -2.414000e+01
     vertex  3.519000e+02  1.121795e+02 -3.014000e+01
   endloop
 endfacet
 facet normal  0.000000e+00 -1.000000e+00 -0.000000e+00
   outer loop
     vertex  3.519000e+02  1.121795e+02 -2.414000e+01
     vertex  3.319000e+02  1.121795e+02 -3.014000e+01
     vertex  3.519000e+02  1.121795e+02 -3.014000e+01
   endloop
 endfacet
 facet normal -0.000000e+00 -1.000000e+00  0.000000e+00
   outer loop
     vertex  3.519000e+02  1.121795e+02 -2.414000e+01
     vertex  3.319000e+02  1.121795e+02 -2.414000e+01
     vertex  3.319000e+02  1.121795e+02 -3.014000e+01
   endloop
 endfacet
 facet normal  8.660254e-01  5.000000e-01  0.000000e+00
   outer loop
     vertex  3.519000e+02  1.468205e+02 -3.014000e+01
     vertex  3.619000e+02  1.295000e+02 -2.414000e+01
     vertex  3.619000e+02  1.295000e+02 -3.014000e+01
   endloop
 endfacet
 facet normal  8.660254e-01  5.000000e-01  0.000000e+00
   outer loop
     vertex  3.519000e+02  1.468205e+02 -2.414000e+01
     vertex  3.619000e+02  1.295000e+02 -2.414000e+01
     vertex  3.519000e+02  1.468205e+02 -3.014000e+01
   endloop
 endfacet
endsolid
