solid 
 facet normal -7.105427e-16 -0.000000e+00 -1.000000e+00
   outer loop
     vertex  3.969000e+02  1.471205e+02 -3.014000e+01
     vertex  3.969000e+02  1.124795e+02 -3.014000e+01
     vertex  3.869000e+02  1.298000e+02 -3.014000e+01
   endloop
 endfacet
 facet normal -5.329071e-16 -0.000000e+00 -1.000000e+00
   outer loop
     vertex  4.169000e+02  1.471205e+02 -3.014000e+01
     vertex  4.169000e+02  1.124795e+02 -3.014000e+01
     vertex  3.969000e+02  1.124795e+02 -3.014000e+01
   endloop
 endfacet
 facet normal -7.105427e-16 -0.000000e+00 -1.000000e+00
   outer loop
     vertex  4.169000e+02  1.471205e+02 -3.014000e+01
     vertex  4.269000e+02  1.298000e+02 -3.014000e+01
     vertex  4.169000e+02  1.124795e+02 -3.014000e+01
   endloop
 endfacet
 facet normal -5.329071e-16  0.000000e+00 -1.000000e+00
   outer loop
     vertex  4.169000e+02  1.471205e+02 -3.014000e+01
     vertex  3.969000e+02  1.124795e+02 -3.014000e+01
     vertex  3.969000e+02  1.471205e+02 -3.014000e+01
   endloop
 endfacet
 facet normal  0.000000e+00  1.000000e+00  0.000000e+00
   outer loop
     vertex  3.969000e+02  1.471205e+02 -2.414000e+01
     vertex  4.169000e+02  1.471205e+02 -3.014000e+01
     vertex  3.969000e+02  1.471205e+02 -3.014000e+01
   endloop
 endfacet
 facet normal  0.000000e+00  1.000000e+00  0.000000e+00
   outer loop
     vertex  3.969000e+02  1.471205e+02 -2.414000e+01
     vertex  4.169000e+02  1.471205e+02 -2.414000e+01
     vertex  4.169000e+02  1.471205e+02 -3.014000e+01
   endloop
 endfacet
 facet normal -8.660254e-01  5.000000e-01  0.000000e+00
   outer loop
     vertex  3.869000e+02  1.298000e+02 -2.414000e+01
     vertex  3.969000e+02  1.471205e+02 -3.014000e+01
     vertex  3.869000e+02  1.298000e+02 -3.014000e+01
   endloop
 endfacet
 facet normal -8.660254e-01  5.000000e-01  0.000000e+00
   outer loop
     vertex  3.869000e+02  1.298000e+02 -2.414000e+01
     vertex  3.969000e+02  1.471205e+02 -2.414000e+01
     vertex  3.969000e+02  1.471205e+02 -3.014000e+01
   endloop
 endfacet
 facet normal -8.660254e-01 -5.000000e-01 -0.000000e+00
   outer loop
     vertex  3.969000e+02  1.124795e+02 -2.414000e+01
     vertex  3.869000e+02  1.298000e+02 -3.014000e+01
     vertex  3.969000e+02  1.124795e+02 -3.014000e+01
   endloop
 endfacet
 facet normal -8.660254e-01 -5.000000e-01  0.000000e+00
   outer loop
     vertex  3.969000e+02  1.124795e+02 -2.414000e+01
     vertex  3.869000e+02  1.298000e+02 -2.414000e+01
     vertex  3.869000e+02  1.298000e+02 -3.014000e+01
   endloop
 endfacet
 facet normal  7.105427e-16  0.000000e+00  1.000000e+00
   outer loop
     vertex  3.994000e+02  1.373000e+02 -4.140000e+00
     vertex  3.994000e+02  1.223000e+02 -4.140000e+00
     vertex  4.144000e+02  1.223000e+02 -4.140000e+00
   endloop
 endfacet
 facet normal  7.105427e-16  0.000000e+00  1.000000e+00
   outer loop
     vertex  3.994000e+02  1.373000e+02 -4.140000e+00
     vertex  4.144000e+02  1.223000e+02 -4.140000e+00
     vertex  4.144000e+02  1.373000e+02 -4.140000e+00
   endloop
 endfacet
 facet normal -0.000000e+00 -1.000000e+00  0.000000e+00
   outer loop
     vertex  4.144000e+02  1.223000e+02 -4.140000e+00
     vertex  3.994000e+02  1.223000e+02 -4.140000e+00
     vertex  3.994000e+02  1.223000e+02 -2.414000e+01
   endloop
 endfacet
 facet normal  0.000000e+00 -1.000000e+00 -0.000000e+00
   outer loop
     vertex  4.144000e+02  1.223000e+02 -4.140000e+00
     vertex  3.994000e+02  1.223000e+02 -2.414000e+01
     vertex  4.144000e+02  1.223000e+02 -2.414000e+01
   endloop
 endfacet
 facet normal -1.000000e+00  0.000000e+00  0.000000e+00
   outer loop
     vertex  3.994000e+02  1.223000e+02 -4.140000e+00
     vertex  3.994000e+02  1.373000e+02 -4.140000e+00
     vertex  3.994000e+02  1.373000e+02 -2.414000e+01
   endloop
 endfacet
 facet normal -1.000000e+00  0.000000e+00  0.000000e+00
   outer loop
     vertex  3.994000e+02  1.223000e+02 -4.140000e+00
     vertex  3.994000e+02  1.373000e+02 -2.414000e+01
     vertex  3.994000e+02  1.223000e+02 -2.414000e+01
   endloop
 endfacet
 facet normal  0.000000e+00  1.000000e+00  0.000000e+00
   outer loop
     vertex  3.994000e+02  1.373000e+02 -4.140000e+00
     vertex  4.144000e+02  1.373000e+02 -4.140000e+00
     vertex  4.144000e+02  1.373000e+02 -2.414000e+01
   endloop
 endfacet
 facet normal  0.000000e+00  1.000000e+00  0.000000e+00
   outer loop
     vertex  3.994000e+02  1.373000e+02 -4.140000e+00
     vertex  4.144000e+02  1.373000e+02 -2.414000e+01
     vertex  3.994000e+02  1.373000e+02 -2.414000e+01
   endloop
 endfacet
 facet normal  1.000000e+00  0.000000e+00  0.000000e+00
   outer loop
     vertex  4.144000e+02  1.223000e+02 -4.140000e+00
     vertex  4.144000e+02  1.223000e+02 -2.414000e+01
     vertex  4.144000e+02  1.373000e+02 -2.414000e+01
   endloop
 endfacet
 facet normal  1.000000e+00  0.000000e+00  0.000000e+00
   outer loop
     vertex  4.144000e+02  1.373000e+02 -4.140000e+00
     vertex  4.144000e+02  1.223000e+02 -4.140000e+00
     vertex  4.144000e+02  1.373000e+02 -2.414000e+01
   endloop
 endfacet
 facet normal  6.814129e-16 -1.882979e-16  1.000000e+00
   outer loop
     vertex  4.144000e+02  1.223000e+02 -2.414000e+01
     vertex  4.169000e+02  1.124795e+02 -2.414000e+01
     vertex  4.269000e+02  1.298000e+02 -2.414000e+01
   endloop
 endfacet
 facet normal  5.329071e-16 -1.356618e-16  1.000000e+00
   outer loop
     vertex  3.994000e+02  1.223000e+02 -2.414000e+01
     vertex  3.969000e+02  1.124795e+02 -2.414000e+01
     vertex  4.169000e+02  1.124795e+02 -2.414000e+01
   endloop
 endfacet
 facet normal  4.736952e-16 -2.411765e-16  1.000000e+00
   outer loop
     vertex  3.994000e+02  1.223000e+02 -2.414000e+01
     vertex  4.169000e+02  1.124795e+02 -2.414000e+01
     vertex  4.144000e+02  1.223000e+02 -2.414000e+01
   endloop
 endfacet
 facet normal  5.684342e-16  0.000000e+00  1.000000e+00
   outer loop
     vertex  4.144000e+02  1.373000e+02 -2.414000e+01
     vertex  4.144000e+02  1.223000e+02 -2.414000e+01
     vertex  4.269000e+02  1.298000e+02 -2.414000e+01
   endloop
 endfacet
 facet normal  6.814129e-16  1.882979e-16  1.000000e+00
   outer loop
     vertex  4.169000e+02  1.471205e+02 -2.414000e+01
     vertex  4.144000e+02  1.373000e+02 -2.414000e+01
     vertex  4.269000e+02  1.298000e+02 -2.414000e+01
   endloop
 endfacet
 facet normal  5.684342e-16  0.000000e+00  1.000000e+00
   outer loop
     vertex  3.869000e+02  1.298000e+02 -2.414000e+01
     vertex  3.994000e+02  1.223000e+02 -2.414000e+01
     vertex  3.994000e+02  1.373000e+02 -2.414000e+01
   endloop
 endfacet
 facet normal  4.931150e-16 -1.255320e-16  1.000000e+00
   outer loop
     vertex  3.869000e+02  1.298000e+02 -2.414000e+01
     vertex  3.969000e+02  1.124795e+02 -2.414000e+01
     vertex  3.994000e+02  1.223000e+02 -2.414000e+01
   endloop
 endfacet
 facet normal  4.736952e-16  1.205883e-16  1.000000e+00
   outer loop
     vertex  3.969000e+02  1.471205e+02 -2.414000e+01
     vertex  3.994000e+02  1.373000e+02 -2.414000e+01
     vertex  4.144000e+02  1.373000e+02 -2.414000e+01
   endloop
 endfacet
 facet normal  4.931150e-16  1.255320e-16  1.000000e+00
   outer loop
     vertex  3.969000e+02  1.471205e+02 -2.414000e+01
     vertex  3.869000e+02  1.298000e+02 -2.414000e+01
     vertex  3.994000e+02  1.373000e+02 -2.414000e+01
   endloop
 endfacet
 facet normal  5.329071e-16  2.261030e-16  1.000000e+00
   outer loop
     vertex  3.969000e+02  1.471205e+02 -2.414000e+01
     vertex  4.144000e+02  1.373000e+02 -2.414000e+01
     vertex  4.169000e+02  1.471205e+02 -2.414000e+01
   endloop
 endfacet
 facet normal  8.660254e-01 -5.000000e-01  0.000000e+00
   outer loop
     vertex  4.269000e+02  1.298000e+02 -2.414000e+01
     vertex  4.169000e+02  1.124795e+02 -3.014000e+01
     vertex  4.269000e+02  1.298000e+02 -3.014000e+01
   endloop
 endfacet
 facet normal  8.660254e-01 -5.000000e-01  0.000000e+00
   outer loop
     vertex  4.269000e+02  1.298000e+02 -2.414000e+01
     vertex  4.169000e+02  1.124795e+02 -2.414000e+01
     vertex  4.169000e+02  1.124795e+02 -3.014000e+01
   endloop
 endfacet
 facet normal  0.000000e+00 -1.000000e+00 -0.000000e+00
   outer loop
     vertex  4.169000e+02  1.124795e+02 -2.414000e+01
     vertex  3.969000e+02  1.124795e+02 -3.014000e+01
     vertex  4.169000e+02  1.124795e+02 -3.014000e+01
   endloop
 endfacet
 facet normal -0.000000e+00 -1.000000e+00  0.000000e+00
   outer loop
     vertex  4.169000e+02  1.124795e+02 -2.414000e+01
     vertex  3.969000e+02  1.124795e+02 -2.414000e+01
     vertex  3.969000e+02  1.124795e+02 -3.014000e+01
   endloop
 endfacet
 facet normal  8.660254e-01  5.000000e-01  0.000000e+00
   outer loop
     vertex  4.169000e+02  1.471205e+02 -3.014000e+01
     vertex  4.269000e+02  1.298000e+02 -2.414000e+01
     vertex  4.269000e+02  1.298000e+02 -3.014000e+01
   endloop
 endfacet
 facet normal  8.660254e-01  5.000000e-01  0.000000e+00
   outer loop
     vertex  4.169000e+02  1.471205e+02 -2.414000e+01
     vertex  4.269000e+02  1.298000e+02 -2.414000e+01
     vertex  4.169000e+02  1.471205e+02 -3.014000e+01
   endloop
 endfacet
endsolid
